<svg xmlns="http://www.w3.org/2000/svg" viewBox="0 0 20.4 20.38"><defs><style>.cls-1{fill:#fff;}</style></defs><g id="Capa_2" data-name="Capa 2"><g id="Capa_1-2" data-name="Capa 1"><path class="cls-1" d="M10.2,0A10.19,10.19,0,1,1,0,10.18,10.14,10.14,0,0,1,10.2,0ZM4.07,6.43v7.69H6.7c.93,0,1.58,0,1.92,0a2.31,2.31,0,0,0,1.43-.66,2,2,0,0,0,.55-1.49,2.83,2.83,0,0,0-.32-1.25A1.13,1.13,0,0,0,9.21,10a1.57,1.57,0,0,0,1.14-1.6,1.67,1.67,0,0,0-.51-1.25,1.73,1.73,0,0,0-1.18-.63,11.86,11.86,0,0,0-1.37-.06ZM5.82,7.78h.76c.33,0,.67,0,.9,0H8a.75.75,0,0,1,.69.82.77.77,0,0,1-.78.88,1.37,1.37,0,0,0-.42,0c-.23,0-.48,0-.78,0H5.82Zm0,2.93H7.59c.35,0,.57,0,.57,0s0,0,.16.06a1,1,0,0,1,.68,1c0,.57-.3.78-.8,1-.09,0-.11.06-.09.06H5.82Zm9.37,1.6a.89.89,0,0,1-.54.67,2.11,2.11,0,0,1-.74.15,1.25,1.25,0,0,1-1-.38,1.3,1.3,0,0,1-.34-1h4a3.39,3.39,0,0,0-.73-2.59,2.59,2.59,0,0,0-2-.74,2.73,2.73,0,0,0-2.08.8,3,3,0,0,0-.8,2.11,2.84,2.84,0,0,0,.61,2,2.88,2.88,0,0,0,2.36,1,3.93,3.93,0,0,0,1.81-.5,1.64,1.64,0,0,0,.88-1.54Zm-3-5.42v.93h3.18V6.89Zm2.57,3a1.52,1.52,0,0,1,.36.87H12.6a1.27,1.27,0,0,1,1.31-1.23A1.06,1.06,0,0,1,14.77,9.84Z"/></g></g></svg>