<svg xmlns="http://www.w3.org/2000/svg" viewBox="0 0 20.4 20.38"><defs><style>.cls-1{fill:#fff;}</style></defs><g id="Capa_2" data-name="Capa 2"><g id="Capa_1-2" data-name="Capa 1"><path class="cls-1" d="M10.2,0A10.19,10.19,0,1,1,0,10.18,10.14,10.14,0,0,1,10.2,0ZM5.42,5.54a1,1,0,0,0-.74.28.92.92,0,0,0-.28.71V14a.79.79,0,0,0,.28.7,1,1,0,0,0,.74.31h9.52a.88.88,0,0,0,.7-.31.83.83,0,0,0,.29-.7V6.53a.93.93,0,0,0-.29-.71,1,1,0,0,0-.7-.28Zm4.74,6.6a.89.89,0,0,1-.74-.42L5.27,7.25c-.13-.11-.15-.23-.06-.32s.25,0,.42.13l3.73,3.5a1,1,0,0,0,.8.4,1,1,0,0,0,.8-.4l3.73-3.5c.17-.17.27-.19.42-.13s.06.21,0,.32l-4.18,4.47A.87.87,0,0,1,10.16,12.14Z"/></g></g></svg>