<svg xmlns="http://www.w3.org/2000/svg" viewBox="0 0 20.4 20.36"><defs><style>.cls-1{fill:#fff;}</style></defs><g id="Capa_2" data-name="Capa 2"><g id="Capa_1-2" data-name="Capa 1"><path class="cls-1" d="M10.2,0A10.18,10.18,0,1,1,0,10.16,10.14,10.14,0,0,1,10.2,0ZM3.9,11.55c0,.48,0,.95.06,1.41A3.61,3.61,0,0,0,5,15.38a3.5,3.5,0,0,0,2.42,1c.44,0,.93,0,1.39,0h1.39c.44,0,.91,0,1.39,0l1.41,0a3.33,3.33,0,0,0,2.38-1A3.32,3.32,0,0,0,16.46,13c0-.91.06-1.85.06-2.8s0-1.9-.06-2.81A3.3,3.3,0,0,0,15.4,4.93a3.24,3.24,0,0,0-2.38-1c-.5,0-1,0-1.45,0H8.79c-.49,0-.95,0-1.41,0A3.37,3.37,0,0,0,5,4.91,3.56,3.56,0,0,0,4,7.31c0,.42,0,.91-.06,1.39s0,.93,0,1.42S3.9,11.06,3.9,11.55Zm1.2-4.2a2.68,2.68,0,0,1,.69-1.64A2.67,2.67,0,0,1,7.44,5c.4,0,.86,0,1.31,0s.94,0,1.43,0,1,0,1.41,0,.93,0,1.35,0a2.46,2.46,0,0,1,1.68.71,2.42,2.42,0,0,1,.7,1.67c0,.82.06,1.73.06,2.74s0,1.89-.06,2.78a2.17,2.17,0,0,1-.7,1.64,2.59,2.59,0,0,1-1.68.7c-.42,0-.86.06-1.33.06H8.83c-.49,0-1,0-1.37-.06a2.58,2.58,0,0,1-1.64-.7A2.38,2.38,0,0,1,5.1,12.9C5,12.12,5,11.15,5,10.14S5,8.2,5.1,7.35Zm2.84,5.1a2.94,2.94,0,0,0,2.26,1,3,3,0,0,0,2.25-1,3.15,3.15,0,0,0,0-4.55,3.11,3.11,0,0,0-4.51,0,3.18,3.18,0,0,0-1,2.3A3.26,3.26,0,0,0,7.94,12.45Zm.78-3.77a2.13,2.13,0,0,1,1.48-.61,2.09,2.09,0,0,1,1.47.61,2,2,0,0,1,.59,1.52,1.85,1.85,0,0,1-.59,1.43,1.85,1.85,0,0,1-1.47.63,1.89,1.89,0,0,1-1.48-.63,1.89,1.89,0,0,1-.59-1.43A2.09,2.09,0,0,1,8.72,8.68Zm4.72-1c.53,0,.76-.25.76-.74S14,6.2,13.44,6.2a.63.63,0,0,0-.73.73A.65.65,0,0,0,13.44,7.67Z"/></g></g></svg>